<?xml version="1.0" standalone="no"?>
<!DOCTYPE svg PUBLIC "-//W3C//DTD SVG 20010904//EN"
 "http://www.w3.org/TR/2001/REC-SVG-20010904/DTD/svg10.dtd">
<svg version="1.0" xmlns="http://www.w3.org/2000/svg"
 width="700.000000pt" height="700.000000pt" viewBox="0 0 700.000000 700.000000"
 preserveAspectRatio="xMidYMid meet">
<metadata>
Created by potrace 1.14, written by Peter Selinger 2001-2017
</metadata>
<g transform="translate(0.000000,700.000000) scale(0.100000,-0.100000)"
fill="#000000" stroke="none">
<path d="M3447 6364 c-1 -1 -42 -5 -92 -8 -84 -6 -218 -21 -275 -32 -14 -2
-41 -7 -60 -10 -541 -87 -1135 -384 -1505 -751 -126 -125 -250 -267 -308 -353
-9 -14 -31 -45 -48 -70 -229 -321 -433 -849 -484 -1255 -4 -27 -8 -61 -11 -75
-31 -180 -25 -676 11 -869 1 -9 6 -41 11 -71 4 -30 8 -57 9 -60 1 -3 7 -32 14
-65 30 -141 114 -421 132 -440 5 -5 9 -15 9 -22 0 -27 106 -250 178 -375 180
-312 393 -553 720 -816 180 -145 460 -302 707 -397 143 -55 394 -127 485 -140
17 -2 96 -16 125 -21 11 -2 43 -7 70 -10 28 -3 66 -7 85 -10 222 -26 645 -23
810 5 885 152 1561 577 2026 1274 14 21 33 53 43 70 10 18 35 60 55 95 126
221 249 551 300 802 3 14 7 35 10 46 2 12 7 37 10 55 3 19 8 45 11 59 3 14 8
52 11 85 4 33 8 63 10 66 5 9 18 269 17 361 -1 175 -13 314 -43 488 -28 162
-28 164 -56 269 -120 450 -309 826 -587 1166 -60 73 -259 273 -325 327 -31 25
-73 60 -92 77 -19 17 -39 31 -43 31 -5 0 -15 7 -23 15 -18 18 -191 132 -249
165 -98 55 -276 141 -376 181 -148 59 -409 135 -546 158 -32 6 -69 12 -83 15
-48 9 -185 25 -275 32 -78 6 -373 12 -378 8z"/>
</g>
</svg>
